<svg width="336" height="80" viewBox="0 0 336 80" fill="none" xmlns="http://www.w3.org/2000/svg">
<g clip-path="url(#clip0_1920_15770)">
<path d="M334.027 4.70131C333.168 3.48076 332.066 2.45059 330.791 1.67506C329.546 0.915407 328.167 0.401756 326.729 0.161933C324.351 -0.239943 321.907 0.107148 319.735 1.15525C319.511 1.26557 319.315 1.42344 319.158 1.61784C319.002 1.81224 318.889 2.03848 318.829 2.28076C318.769 2.52304 318.763 2.77553 318.81 3.02059C318.858 3.26565 318.958 3.49737 319.104 3.69958C319.34 4.02864 319.684 4.26379 320.076 4.36352C320.468 4.46325 320.883 4.42115 321.247 4.24464C322.775 3.50802 324.494 3.26602 326.165 3.55226C327.174 3.71043 328.142 4.06872 329.01 4.6061C329.879 5.14348 330.632 5.84913 331.224 6.68164C333.525 9.94991 332.77 14.8302 329.578 17.3388C327.969 18.6015 325.73 19.0876 323.434 18.6625C321.06 18.2248 319.054 16.9052 317.935 15.0386L317.906 14.9902L317.874 14.946C317.851 14.9102 317.286 14.1042 316.592 13.2161C315.166 11.4167 314.411 10.8611 313.913 10.657L314.211 9.39432C314.289 9.06733 314.274 8.72524 314.169 8.40612C314.064 8.087 313.872 7.80337 313.615 7.58677C313.359 7.37018 313.047 7.22912 312.715 7.1793C312.383 7.12948 312.043 7.17284 311.734 7.30456L307.209 9.2449C306.948 9.35548 306.716 9.52596 306.533 9.74261C306.349 9.95926 306.219 10.216 306.153 10.4922C306.086 10.7684 306.086 11.0563 306.151 11.3328C306.216 11.6093 306.345 11.8665 306.528 12.0839L309.682 15.8572C309.898 16.1154 310.181 16.3085 310.5 16.4147C310.819 16.521 311.162 16.5364 311.489 16.4591C311.816 16.3818 312.116 16.2149 312.354 15.977C312.592 15.7391 312.759 15.4397 312.836 15.1122L313.023 14.3314L315.006 16.8568C316.64 19.5401 319.474 21.4299 322.799 22.0423C323.535 22.1787 324.283 22.2491 325.032 22.2527C327.435 22.2824 329.778 21.5043 331.687 20.043C332.793 19.1686 333.721 18.0899 334.42 16.8653C335.118 15.653 335.594 14.3261 335.827 12.9467C336.083 11.5214 336.056 10.0596 335.747 8.64481C335.438 7.23005 334.854 5.89004 334.027 4.70131Z" fill="#93B191"/>
<path d="M314.386 18.9046C314.15 18.5758 313.806 18.341 313.414 18.2413C313.022 18.1416 312.608 18.1834 312.244 18.3595C310.717 19.0981 308.998 19.3402 307.328 19.0519C306.318 18.8934 305.351 18.535 304.482 17.9977C303.613 17.4603 302.86 16.7548 302.266 15.9225C299.968 12.6563 300.723 7.77604 303.915 5.26749C305.523 4.0048 307.763 3.51866 310.057 3.94377C312.431 4.3815 314.437 5.70102 315.558 7.5677L315.585 7.6161L315.616 7.6603C315.64 7.69397 316.207 8.50209 316.901 9.39018C318.327 11.1895 319.08 11.7451 319.58 11.9492L319.281 13.2119C319.204 13.5389 319.218 13.8811 319.323 14.2003C319.429 14.5195 319.62 14.8032 319.877 15.0197C320.134 15.2362 320.446 15.377 320.778 15.4264C321.11 15.4759 321.45 15.4319 321.758 15.2996L326.283 13.3466C326.725 13.1568 327.073 12.7993 327.252 12.3527C327.43 11.906 327.425 11.4067 327.236 10.9643C327.165 10.8018 327.072 10.6502 326.958 10.514L323.804 6.74063C323.589 6.48243 323.306 6.28932 322.987 6.1829C322.668 6.07648 322.326 6.06095 321.998 6.13803C321.671 6.21511 321.372 6.38177 321.134 6.61938C320.895 6.85699 320.728 7.15619 320.65 7.48352L320.463 8.26428L318.476 5.7389C316.844 3.05568 314.008 1.16795 310.686 0.555545C309.949 0.41714 309.202 0.346694 308.453 0.345096C306.05 0.314717 303.706 1.09207 301.797 2.5527C300.692 3.42761 299.764 4.50629 299.064 5.73048C298.366 6.94241 297.889 8.26944 297.657 9.64904C297.403 11.0747 297.433 12.5365 297.743 13.9509C298.054 15.3653 298.64 16.7046 299.468 17.8923C300.323 19.1145 301.422 20.1463 302.695 20.9228C303.94 21.6824 305.318 22.1961 306.756 22.4359C309.134 22.8399 311.579 22.4927 313.751 21.4426C313.975 21.3323 314.172 21.1744 314.329 20.98C314.485 20.7856 314.597 20.5594 314.657 20.3171C314.717 20.0748 314.724 19.8223 314.676 19.5773C314.629 19.3322 314.528 19.1005 314.382 18.8983L314.386 18.9046Z" fill="#93B191"/>
<path d="M34.9615 37.6555L20.762 65.6831L4.85722 37.6555L0 37.7944V79.5832H5.42495V47.1741L19.3343 74.1663H22.2276L35.6701 47.1762V79.5853H41.1014V37.7944L34.9615 37.6555Z" fill="#93B191"/>
<path d="M70.7973 72.6933C69.3828 73.8278 67.7061 74.5883 65.9212 74.9051C62.6915 75.4859 59.9012 75.1029 57.5567 73.7813C55.2122 72.4597 53.6835 70.271 52.977 67.2637L77.1832 62.9411C77.1721 61.6701 77.0497 60.4026 76.8174 59.153C76.0702 54.9819 74.1308 51.8532 70.9992 49.767C67.862 47.6878 64.2559 47.0101 60.1556 47.7383C55.1961 48.6264 51.6166 50.8108 49.4172 54.2916C47.2177 57.7725 46.5365 61.8615 47.3733 66.5587C48.2312 71.3976 50.418 74.9977 53.9337 77.3589C57.4494 79.7202 61.6618 80.4616 66.5709 79.5834C70.566 78.8692 73.6416 77.098 75.7976 74.2695L72.5153 70.9802C72.0052 71.6108 71.4293 72.1851 70.7973 72.6933ZM54.2155 55.9647C55.6874 54.0707 57.8202 52.8781 60.614 52.3871C63.3748 51.8988 65.6962 52.265 67.6076 53.4814C69.5189 54.6978 70.7847 56.6634 71.4282 59.3508L52.1212 62.8022C52.0525 60.1239 52.7506 57.8412 54.2155 55.9542V55.9647Z" fill="#93B191"/>
<path d="M104.762 51.1096C102.589 48.9209 99.4352 47.8259 95.2999 47.8245C92.9619 47.8303 90.6418 48.2338 88.4388 49.0177C86.1693 49.8132 84.3211 50.8872 82.894 52.2397L85.4572 56.0004C88.5145 53.6939 91.5985 52.5406 94.7091 52.5406C97.7664 52.5406 99.9125 53.327 101.148 54.8998C102.383 56.4725 103 58.7706 103 61.7941C101.052 61.2034 98.6264 60.9039 95.7247 60.8954C91.0721 60.8954 87.4331 61.6818 84.8075 63.2546C82.1819 64.8273 80.8691 67.2454 80.8691 70.5087C80.8691 73.3765 81.9037 75.6746 83.9727 77.403C86.0418 79.1315 88.7648 79.9972 92.1417 80C94.6481 80 96.8363 79.523 98.7063 78.5689C100.576 77.6149 102.008 76.4224 103.002 74.9913V79.5875H108.009V60.4219C108.009 56.3967 106.926 53.2926 104.762 51.1096ZM103.002 69.3723C102.366 70.8847 101.18 72.2779 99.4464 73.5518C97.7124 74.8257 95.6798 75.4627 93.3486 75.4627C91.1997 75.4627 89.4685 75.0053 88.155 74.0906C87.5334 73.6841 87.0262 73.125 86.6817 72.4667C86.3372 71.8084 86.1668 71.0727 86.1869 70.3299C86.1869 66.9865 89.5869 65.3156 96.387 65.317C99.0911 65.317 101.299 65.6144 103.011 66.2093L103.002 69.3723Z" fill="#93B191"/>
<path d="M115.402 36.0056V79.5832H120.417V36.0056H115.402Z" fill="#93B191"/>
<path d="M145.166 37.7944H128.943V42.8705H145.403C152.917 42.8705 156.674 45.5361 156.674 50.8675C156.674 53.456 155.711 55.4855 153.785 56.9558C151.859 58.4261 148.925 59.162 144.985 59.1634H128.943V79.5769H134.368V64.1826H145.107C151.031 64.1826 155.376 62.9199 158.143 60.3945C160.911 57.8691 162.292 54.7124 162.288 50.9243C162.285 42.1739 156.578 37.7972 145.166 37.7944Z" fill="#93B191"/>
<path d="M168.182 36.0056V79.5832H173.197V36.0056H168.182Z" fill="#93B191"/>
<path d="M202.629 51.1096C200.463 48.9209 197.309 47.8259 193.166 47.8245C190.829 47.8309 188.51 48.2344 186.307 49.0177C184.044 49.8132 182.195 50.8872 180.761 52.2397L183.345 56.0004C186.406 53.6939 189.49 52.5406 192.597 52.5406C195.658 52.5406 197.804 53.327 199.033 54.8998C200.262 56.4725 200.88 58.7706 200.885 61.7941C198.934 61.1992 196.508 60.8996 193.608 60.8954C188.955 60.8954 185.318 61.6818 182.697 63.2546C180.076 64.8273 178.763 67.2454 178.759 70.5087C178.759 73.3765 179.791 75.6746 181.856 77.403C183.921 79.1315 186.646 79.9972 190.031 80C192.538 80 194.724 79.523 196.59 78.5689C198.455 77.6149 199.887 76.4224 200.885 74.9913V79.5875H205.894V60.4219C205.883 56.3967 204.794 53.2926 202.629 51.1096ZM200.869 69.3723C200.231 70.8847 199.048 72.2779 197.319 73.5518C195.591 74.8257 193.553 75.4627 191.207 75.4627C189.059 75.4627 187.33 75.0053 186.019 74.0906C185.397 73.6851 184.889 73.1262 184.544 72.4677C184.2 71.8091 184.03 71.073 184.051 70.3299C184.051 66.9865 187.45 65.3156 194.247 65.317C196.949 65.317 199.161 65.6137 200.869 66.2093V69.3723Z" fill="#93B191"/>
<path d="M228.42 47.8833C226.261 47.8562 224.119 48.2724 222.127 49.106C220.238 49.9226 218.797 51.0871 217.801 52.5995V48.5441H212.795V79.5832H217.801V58.8688C218.609 57.0347 219.912 55.4631 221.565 54.3315C223.131 53.2103 225.006 52.605 226.931 52.5995C229.996 52.5995 232.271 53.395 233.757 54.986C235.243 56.577 235.99 59.0841 235.998 62.5074V79.5832H241.005V61.9055C241.005 52.5588 236.81 47.8847 228.42 47.8833Z" fill="#93B191"/>
<path d="M248.698 56.1982V60.8281H277.085V56.1982H248.698ZM248.698 74.7387V79.579H279.295V74.7387H248.698ZM248.698 37.7944V42.8705H278.767V37.7944H248.698Z" fill="#93B191"/>
<path d="M282.455 37.7944V42.8705H296.947V79.5832H302.376V42.8705H316.931V37.7944H282.455Z" fill="#93B191"/>
</g>
<defs>
<clipPath id="clip0_1920_15770">
<rect width="336" height="80" fill="white"/>
</clipPath>
</defs>
</svg>
