<svg width="24" height="24" viewBox="0 0 24 24" fill="none" xmlns="http://www.w3.org/2000/svg">
    <path
        d="M20.9953 12.4834C20.9953 13.0811 20.5265 13.5492 19.9952 13.5492H18.9951L19.017 18.8684C19.017 18.958 19.0107 19.0477 19.0014 19.1373V19.6719C19.0014 20.4057 18.4419 21 17.7513 21H17.2512C17.2168 21 17.1825 21 17.1481 20.9967C17.1043 21 17.0606 21 17.0168 21H16.0011H15.251C14.5604 21 14.0009 20.4057 14.0009 19.6719V18.875V16.75C14.0009 16.1623 13.554 15.6875 13.0009 15.6875H11.0007C10.4475 15.6875 10.0006 16.1623 10.0006 16.75V18.875V19.6719C10.0006 20.4057 9.44117 21 8.75049 21H8.00043H7.00347C6.95659 21 6.90971 20.9967 6.86283 20.9934C6.82533 20.9967 6.78782 21 6.75032 21H6.25028C5.55959 21 5.00017 20.4057 5.00017 19.6719V15.9531C5.00017 15.9232 5.00017 15.89 5.0033 15.8602V13.5492H4.00009C3.43754 13.5492 3 13.0844 3 12.4834C3 12.1846 3.09376 11.9189 3.31253 11.6865L11.3257 4.26562C11.5445 4.0332 11.7945 4 12.0133 4C12.232 4 12.4821 4.06641 12.6696 4.23242L20.6515 11.6865C20.9015 11.9189 21.0265 12.1846 20.9953 12.4834Z"
        fill="#93B191" />
</svg>
