<svg width="24" height="24" viewBox="0 0 24 24" fill="none" xmlns="http://www.w3.org/2000/svg">
<path d="M4.79032 8.46154C5.26515 8.46154 5.72052 8.27919 6.05627 7.95461C6.39202 7.63003 6.58065 7.1898 6.58065 6.73077C6.58065 6.27174 6.39202 5.83151 6.05627 5.50693C5.72052 5.18235 5.26515 5 4.79032 5C4.3155 5 3.86012 5.18235 3.52437 5.50693C3.18862 5.83151 3 6.27174 3 6.73077C3 7.1898 3.18862 7.63003 3.52437 7.95461C3.86012 8.27919 4.3155 8.46154 4.79032 8.46154ZM9.56452 5.57692C8.90433 5.57692 8.37097 6.09255 8.37097 6.73077C8.37097 7.36899 8.90433 7.88462 9.56452 7.88462H20.3065C20.9666 7.88462 21.5 7.36899 21.5 6.73077C21.5 6.09255 20.9666 5.57692 20.3065 5.57692H9.56452ZM9.56452 11.3462C8.90433 11.3462 8.37097 11.8618 8.37097 12.5C8.37097 13.1382 8.90433 13.6538 9.56452 13.6538H20.3065C20.9666 13.6538 21.5 13.1382 21.5 12.5C21.5 11.8618 20.9666 11.3462 20.3065 11.3462H9.56452ZM9.56452 17.1154C8.90433 17.1154 8.37097 17.631 8.37097 18.2692C8.37097 18.9075 8.90433 19.4231 9.56452 19.4231H20.3065C20.9666 19.4231 21.5 18.9075 21.5 18.2692C21.5 17.631 20.9666 17.1154 20.3065 17.1154H9.56452ZM4.79032 20C5.26515 20 5.72052 19.8177 6.05627 19.4931C6.39202 19.1685 6.58065 18.7283 6.58065 18.2692C6.58065 17.8102 6.39202 17.37 6.05627 17.0454C5.72052 16.7208 5.26515 16.5385 4.79032 16.5385C4.3155 16.5385 3.86012 16.7208 3.52437 17.0454C3.18862 17.37 3 17.8102 3 18.2692C3 18.7283 3.18862 19.1685 3.52437 19.4931C3.86012 19.8177 4.3155 20 4.79032 20ZM6.58065 12.5C6.58065 12.2727 6.53434 12.0476 6.44436 11.8377C6.35439 11.6277 6.22252 11.4369 6.05627 11.2762C5.89002 11.1154 5.69266 10.988 5.47545 10.901C5.25824 10.814 5.02543 10.7692 4.79032 10.7692C4.55521 10.7692 4.32241 10.814 4.1052 10.901C3.88798 10.988 3.69062 11.1154 3.52437 11.2762C3.35813 11.4369 3.22625 11.6277 3.13628 11.8377C3.04631 12.0476 3 12.2727 3 12.5C3 12.7273 3.04631 12.9523 3.13628 13.1623C3.22625 13.3723 3.35813 13.5631 3.52437 13.7238C3.69062 13.8846 3.88798 14.012 4.1052 14.099C4.32241 14.186 4.55521 14.2308 4.79032 14.2308C5.02543 14.2308 5.25824 14.186 5.47545 14.099C5.69266 14.012 5.89002 13.8846 6.05627 13.7238C6.22252 13.5631 6.35439 13.3723 6.44436 13.1623C6.53434 12.9523 6.58065 12.7273 6.58065 12.5Z" fill="#8A8A8A"/>
</svg>
