<svg width="24" height="24" viewBox="0 0 24 24" fill="none" xmlns="http://www.w3.org/2000/svg">
    <path
        d="M12 12C10.7876 12 9.62482 11.5259 8.76751 10.682C7.9102 9.83807 7.42857 8.69347 7.42857 7.5C7.42857 6.30653 7.9102 5.16193 8.76751 4.31802C9.62482 3.47411 10.7876 3 12 3C13.2124 3 14.3752 3.47411 15.2325 4.31802C16.0898 5.16193 16.5714 6.30653 16.5714 7.5C16.5714 8.69347 16.0898 9.83807 15.2325 10.682C14.3752 11.5259 13.2124 12 12 12ZM13.6321 13.6875C17.15 13.6875 20 16.493 20 19.9559C20 20.5324 19.525 21 18.9393 21H5.06071C4.475 21 4 20.5324 4 19.9559C4 16.493 6.85 13.6875 10.3679 13.6875H13.6321Z"
        fill="#93B191" />
</svg>
