<svg width="18" height="18" viewBox="0 0 18 18" fill="none" xmlns="http://www.w3.org/2000/svg">
<path fill-rule="evenodd" clip-rule="evenodd" d="M7.31143 14.6257C8.92486 14.6257 10.4153 14.1019 11.6245 13.2194L16.0781 17.6704C16.5175 18.1099 17.2311 18.1099 17.6705 17.6704C18.1098 17.2309 18.1098 16.5172 17.6705 16.0777L13.2168 11.6267C14.1026 10.4173 14.6229 8.92661 14.6229 7.31286C14.6229 3.27321 11.3503 1.76579e-07 7.31143 0C3.27257 -1.76579e-07 1.76544e-07 3.27321 0 7.31286C-1.76544e-07 11.3525 3.27257 14.6257 7.31143 14.6257ZM12.3732 7.31286C12.3732 7.97771 12.2423 8.63605 11.9879 9.25029C11.7335 9.86453 11.3607 10.4226 10.8906 10.8928C10.4206 11.3629 9.8626 11.7358 9.24848 11.9902C8.63436 12.2447 7.97615 12.3756 7.31143 12.3756C6.64671 12.3756 5.9885 12.2447 5.37438 11.9902C4.76026 11.7358 4.20225 11.3629 3.73222 10.8928C3.2622 10.4226 2.88935 9.86453 2.63497 9.25029C2.3806 8.63605 2.24967 7.97771 2.24967 7.31286C2.24967 6.64801 2.3806 5.98967 2.63497 5.37543C2.88935 4.76119 3.2622 4.20307 3.73223 3.73295C4.20225 3.26283 4.76026 2.88991 5.37438 2.63549C5.9885 2.38106 6.64671 2.25011 7.31143 2.25011C7.97615 2.25011 8.63436 2.38106 9.24848 2.63549C9.8626 2.88992 10.4206 3.26283 10.8906 3.73295C11.3607 4.20307 11.7335 4.76119 11.9879 5.37543C12.2423 5.98967 12.3732 6.64801 12.3732 7.31286Z" fill="black"/>
<path d="M9.85782 4.9368C9.51769 4.59667 8.96624 4.59665 8.62609 4.9368L7.39435 6.16854L6.16262 4.9368C5.82249 4.59667 5.27103 4.59665 4.93088 4.9368C4.59074 5.27695 4.59076 5.82841 4.93088 6.16854L6.16262 7.40027L4.93088 8.63201C4.59074 8.97215 4.59076 9.52361 4.93088 9.86374C5.27101 10.2039 5.82247 10.2039 6.16262 9.86374L7.39435 8.63201L8.62609 9.86374C8.96622 10.2039 9.51767 10.2039 9.85782 9.86374C10.198 9.52359 10.198 8.97213 9.85782 8.63201L8.62609 7.40027L9.85782 6.16854C10.198 5.82839 10.198 5.27693 9.85782 4.9368Z" fill="black"/>
</svg>
